<svg viewBox="0 0 560 480" xmlns="http://www.w3.org/2000/svg">
<rect x="1" y="1" width="558" height="478" rx="28" fill="rgba(255,255,255,0.055)" stroke="rgba(255,255,255,0.14)" stroke-width="1.5"/>
<circle cx="80" cy="70" r="120" fill="rgba(255,255,255,0.04)"/><circle cx="490" cy="420" r="130" fill="rgba(255,255,255,0.04)"/><circle cx="280" cy="240" r="112" fill="none" stroke="#ffffff" stroke-width="2.5" opacity="0.35"/><circle cx="280" cy="240" r="146" fill="none" stroke="#ffffff" stroke-width="2.5" opacity="0.22"/><circle cx="280" cy="240" r="180" fill="none" stroke="#ffffff" stroke-width="2.5" opacity="0.1"/><circle cx="280" cy="240" r="82" fill="#c9a84c"/><circle cx="280" cy="240" r="82" fill="none" stroke="#f0d98a" stroke-width="3" opacity="0.55"/><g transform="translate(236,196) scale(3.6666666666666665)" fill="none" stroke="#ffffff" stroke-width="0.464" stroke-linecap="round" stroke-linejoin="round"><path d="M6 8.5a6.5 6.5 0 1 1 13 0c0 6-6 6-6 10a3.5 3.5 0 1 1-7 0"/><path d="M15 8.5a2.5 2.5 0 0 0-5 0v1a2 2 0 1 1 0 4"/></g><g transform="translate(354,136) scale(1.1666666666666667)" fill="none" stroke="#f0d98a" stroke-width="1.714" stroke-linecap="round" stroke-linejoin="round"><path d="M11.017 2.814a1 1 0 0 1 1.966 0l1.051 5.558a2 2 0 0 0 1.594 1.594l5.558 1.051a1 1 0 0 1 0 1.966l-5.558 1.051a2 2 0 0 0-1.594 1.594l-1.051 5.558a1 1 0 0 1-1.966 0l-1.051-5.558a2 2 0 0 0-1.594-1.594l-5.558-1.051a1 1 0 0 1 0-1.966l5.558-1.051a2 2 0 0 0 1.594-1.594z"/></g>
<g>
  <rect x="36" y="36" width="224" height="56" rx="14" fill="rgba(255,255,255,0.10)" stroke="rgba(255,255,255,0.18)" stroke-width="1"/>
  <circle cx="64" cy="64.0" r="16" fill="#7aa6b0"/>
  <g transform="translate(55,55.0) scale(0.75)" fill="none" stroke="#ffffff" stroke-width="2.933" stroke-linecap="round" stroke-linejoin="round"><path d="M22 12h-2.48a2 2 0 0 0-1.93 1.46l-2.35 8.36a.25.25 0 0 1-.48 0L9.24 2.18a.25.25 0 0 0-.48 0l-2.35 8.36A2 2 0 0 1 4.49 12H2"/></g>
  <text x="88" y="69.0" font-family="Poppins, sans-serif" font-size="14" font-weight="600" fill="#eaf4f7">Advanced Diagnostics</text>
</g>
<g>
  <rect x="300" y="36" width="224" height="56" rx="14" fill="rgba(255,255,255,0.10)" stroke="rgba(255,255,255,0.18)" stroke-width="1"/>
  <circle cx="328" cy="64.0" r="16" fill="#28b5d4"/>
  <g transform="translate(319,55.0) scale(0.75)" fill="none" stroke="#ffffff" stroke-width="2.933" stroke-linecap="round" stroke-linejoin="round"><path d="M12 18V5"/><path d="M15 13a4.17 4.17 0 0 1-3-4 4.17 4.17 0 0 1-3 4"/><path d="M17.598 6.5A3 3 0 1 0 12 5a3 3 0 1 0-5.598 1.5"/><path d="M17.997 5.125a4 4 0 0 1 2.526 5.77"/><path d="M18 18a4 4 0 0 0 2-7.464"/><path d="M19.967 17.483A4 4 0 1 1 12 18a4 4 0 1 1-7.967-.517"/><path d="M6 18a4 4 0 0 1-2-7.464"/><path d="M6.003 5.125a4 4 0 0 0-2.526 5.77"/></g>
  <text x="352" y="69.0" font-family="Poppins, sans-serif" font-size="14" font-weight="600" fill="#eaf4f7">Cochlear™ Mapping</text>
</g>
<g>
  <rect x="36" y="388" width="224" height="56" rx="14" fill="rgba(255,255,255,0.10)" stroke="rgba(255,255,255,0.18)" stroke-width="1"/>
  <circle cx="64" cy="416.0" r="16" fill="#c9a84c"/>
  <g transform="translate(55,407.0) scale(0.75)" fill="none" stroke="#ffffff" stroke-width="2.933" stroke-linecap="round" stroke-linejoin="round"><path d="M3 14h3a2 2 0 0 1 2 2v3a2 2 0 0 1-2 2H5a2 2 0 0 1-2-2v-7a9 9 0 0 1 18 0v7a2 2 0 0 1-2 2h-1a2 2 0 0 1-2-2v-3a2 2 0 0 1 2-2h3"/></g>
  <text x="88" y="421.0" font-family="Poppins, sans-serif" font-size="14" font-weight="600" fill="#eaf4f7">Hearing Aid Fitting</text>
</g>
<g>
  <rect x="300" y="388" width="224" height="56" rx="14" fill="rgba(255,255,255,0.10)" stroke="rgba(255,255,255,0.18)" stroke-width="1"/>
  <circle cx="328" cy="416.0" r="16" fill="#7aa6b0"/>
  <g transform="translate(319,407.0) scale(0.75)" fill="none" stroke="#ffffff" stroke-width="2.933" stroke-linecap="round" stroke-linejoin="round"><path d="M2.992 16.342a2 2 0 0 1 .094 1.167l-1.065 3.29a1 1 0 0 0 1.236 1.168l3.413-.998a2 2 0 0 1 1.099.092 10 10 0 1 0-4.777-4.719"/></g>
  <text x="352" y="421.0" font-family="Poppins, sans-serif" font-size="14" font-weight="600" fill="#eaf4f7">Speech Therapy</text>
</g>
</svg>