<svg viewBox="0 0 220 220" xmlns="http://www.w3.org/2000/svg"><circle cx="110.0" cy="110.0" r="82" fill="none" stroke="#ffffff" stroke-width="2" opacity="0.3"/><circle cx="110.0" cy="110.0" r="102" fill="none" stroke="#ffffff" stroke-width="2" opacity="0.14"/><circle cx="110.0" cy="110.0" r="62" fill="#c9a84c"/><circle cx="110.0" cy="110.0" r="62" fill="none" stroke="#f0d98a" stroke-width="2.5" opacity="0.55"/><g transform="translate(82.0,82.0) scale(2.3333333333333335)"><g fill="none" stroke="#ffffff" stroke-width="0.771" stroke-linecap="round" stroke-linejoin="round"><path d="M12 18V5"/><path d="M15 13a4.17 4.17 0 0 1-3-4 4.17 4.17 0 0 1-3 4"/><path d="M17.598 6.5A3 3 0 1 0 12 5a3 3 0 1 0-5.598 1.5"/><path d="M17.997 5.125a4 4 0 0 1 2.526 5.77"/><path d="M18 18a4 4 0 0 0 2-7.464"/><path d="M19.967 17.483A4 4 0 1 1 12 18a4 4 0 1 1-7.967-.517"/><path d="M6 18a4 4 0 0 1-2-7.464"/><path d="M6.003 5.125a4 4 0 0 0-2.526 5.77"/></g></g><g transform="translate(160.0,44.0) scale(0.9166666666666666)"><g fill="none" stroke="#f0d98a" stroke-width="2.182" stroke-linecap="round" stroke-linejoin="round"><path d="M11.017 2.814a1 1 0 0 1 1.966 0l1.051 5.558a2 2 0 0 0 1.594 1.594l5.558 1.051a1 1 0 0 1 0 1.966l-5.558 1.051a2 2 0 0 0-1.594 1.594l-1.051 5.558a1 1 0 0 1-1.966 0l-1.051-5.558a2 2 0 0 0-1.594-1.594l-5.558-1.051a1 1 0 0 1 0-1.966l5.558-1.051a2 2 0 0 0 1.594-1.594z"/></g></g></svg>