<svg viewBox="0 0 220 220" xmlns="http://www.w3.org/2000/svg"><circle cx="110.0" cy="110.0" r="82" fill="none" stroke="#ffffff" stroke-width="2" opacity="0.3"/><circle cx="110.0" cy="110.0" r="102" fill="none" stroke="#ffffff" stroke-width="2" opacity="0.14"/><circle cx="110.0" cy="110.0" r="62" fill="#c9a84c"/><circle cx="110.0" cy="110.0" r="62" fill="none" stroke="#f0d98a" stroke-width="2.5" opacity="0.55"/><g transform="translate(82.0,82.0) scale(2.3333333333333335)"><g fill="none" stroke="#ffffff" stroke-width="0.771" stroke-linecap="round" stroke-linejoin="round"><path d="M13.997 4a2 2 0 0 1 1.76 1.05l.486.9A2 2 0 0 0 18.003 7H20a2 2 0 0 1 2 2v9a2 2 0 0 1-2 2H4a2 2 0 0 1-2-2V9a2 2 0 0 1 2-2h1.997a2 2 0 0 0 1.759-1.048l.489-.904A2 2 0 0 1 10.004 4z"/><circle cx="12" cy="13" r="3"/></g></g><g transform="translate(160.0,44.0) scale(0.9166666666666666)"><g fill="none" stroke="#f0d98a" stroke-width="2.182" stroke-linecap="round" stroke-linejoin="round"><path d="M11.017 2.814a1 1 0 0 1 1.966 0l1.051 5.558a2 2 0 0 0 1.594 1.594l5.558 1.051a1 1 0 0 1 0 1.966l-5.558 1.051a2 2 0 0 0-1.594 1.594l-1.051 5.558a1 1 0 0 1-1.966 0l-1.051-5.558a2 2 0 0 0-1.594-1.594l-5.558-1.051a1 1 0 0 1 0-1.966l5.558-1.051a2 2 0 0 0 1.594-1.594z"/></g></g></svg>