<svg viewBox="0 0 220 220" xmlns="http://www.w3.org/2000/svg"><circle cx="110.0" cy="110.0" r="82" fill="none" stroke="#ffffff" stroke-width="2" opacity="0.3"/><circle cx="110.0" cy="110.0" r="102" fill="none" stroke="#ffffff" stroke-width="2" opacity="0.14"/><circle cx="110.0" cy="110.0" r="62" fill="#c9a84c"/><circle cx="110.0" cy="110.0" r="62" fill="none" stroke="#f0d98a" stroke-width="2.5" opacity="0.55"/><g transform="translate(82.0,82.0) scale(2.3333333333333335)"><g fill="none" stroke="#ffffff" stroke-width="0.771" stroke-linecap="round" stroke-linejoin="round"><path d="M22 12h-2.48a2 2 0 0 0-1.93 1.46l-2.35 8.36a.25.25 0 0 1-.48 0L9.24 2.18a.25.25 0 0 0-.48 0l-2.35 8.36A2 2 0 0 1 4.49 12H2"/></g></g><g transform="translate(160.0,44.0) scale(0.9166666666666666)"><g fill="none" stroke="#f0d98a" stroke-width="2.182" stroke-linecap="round" stroke-linejoin="round"><path d="M11.017 2.814a1 1 0 0 1 1.966 0l1.051 5.558a2 2 0 0 0 1.594 1.594l5.558 1.051a1 1 0 0 1 0 1.966l-5.558 1.051a2 2 0 0 0-1.594 1.594l-1.051 5.558a1 1 0 0 1-1.966 0l-1.051-5.558a2 2 0 0 0-1.594-1.594l-5.558-1.051a1 1 0 0 1 0-1.966l5.558-1.051a2 2 0 0 0 1.594-1.594z"/></g></g></svg>